<svg width="12" height="15" viewBox="0 0 12 15" fill="none" xmlns="http://www.w3.org/2000/svg">
<path d="M5.99992 0.833252C2.87525 0.833252 0.333252 3.37525 0.333252 6.49992C0.333252 7.84525 0.816252 9.15092 1.69759 10.1826C1.79825 10.2969 4.17325 12.9956 4.96658 13.7519C5.25625 14.0283 5.62792 14.1666 5.99992 14.1666C6.37192 14.1666 6.74358 14.0283 7.03358 13.7519C7.95592 12.8723 10.2083 10.2903 10.3069 10.1769C11.1836 9.15092 11.6666 7.84525 11.6666 6.49992C11.6666 3.37525 9.12458 0.833252 5.99992 0.833252ZM5.99992 8.16658C5.07959 8.16658 4.33325 7.42025 4.33325 6.49992C4.33325 5.57959 5.07959 4.83325 5.99992 4.83325C6.92025 4.83325 7.66658 5.57959 7.66658 6.49992C7.66658 7.42025 6.92025 8.16658 5.99992 8.16658Z" fill="#00A55D"/>
</svg>
