<svg width="18" height="14" viewBox="0 0 18 14" fill="none" xmlns="http://www.w3.org/2000/svg">
<path d="M1.5 2.83464C1.5 2.39261 1.67559 1.96868 1.98816 1.65612C2.30072 1.34356 2.72464 1.16797 3.16667 1.16797H14.8333C15.2754 1.16797 15.6993 1.34356 16.0118 1.65612C16.3244 1.96868 16.5 2.39261 16.5 2.83464M1.5 2.83464V11.168C1.5 11.61 1.67559 12.0339 1.98816 12.3465C2.30072 12.659 2.72464 12.8346 3.16667 12.8346H14.8333C15.2754 12.8346 15.6993 12.659 16.0118 12.3465C16.3244 12.0339 16.5 11.61 16.5 11.168V2.83464M1.5 2.83464L9 7.83464L16.5 2.83464" stroke="#00A55D" stroke-width="1.5" stroke-linecap="round" stroke-linejoin="round"/>
</svg>
