<svg width="18" height="18" viewBox="0 0 18 18" fill="none" xmlns="http://www.w3.org/2000/svg">
<path d="M11.5 4.83333C11.942 4.83333 12.366 5.00893 12.6785 5.32149C12.9911 5.63405 13.1667 6.05797 13.1667 6.5M11.5 1.5C12.8261 1.5 14.0979 2.02678 15.0355 2.96447C15.9732 3.90215 16.5 5.17392 16.5 6.5M3.16667 2.33333H6.5L8.16667 6.5L6.08333 7.75C6.9758 9.55961 8.44039 11.0242 10.25 11.9167L11.5 9.83333L15.6667 11.5V14.8333C15.6667 15.2754 15.4911 15.6993 15.1785 16.0118C14.866 16.3244 14.442 16.5 14 16.5C10.7494 16.3025 7.68346 14.9221 5.38069 12.6193C3.07792 10.3165 1.69754 7.25061 1.5 4C1.5 3.55797 1.67559 3.13405 1.98816 2.82149C2.30072 2.50893 2.72464 2.33333 3.16667 2.33333Z" stroke="#00A55D" strokeWidth="1.5" strokeLinecap="round" strokeLinejoin="round"/>
</svg>
