<svg width="39" height="33" viewBox="0 0 39 33" fill="none" xmlns="http://www.w3.org/2000/svg">
<path d="M4.37993 0.120872C2.07034 0.120872 0.179932 2.01128 0.179932 4.32087V9.36087V14.4009V16.0809V20.2169V27.8409C0.179932 30.1601 2.06069 32.0409 4.37993 32.0409H34.6199C36.9392 32.0409 38.8199 30.1601 38.8199 27.8409V20.2169V16.0809V14.4009V9.36087V4.32087C38.8199 2.01128 36.9295 0.120872 34.6199 0.120872H4.37993ZM4.37993 1.80087H34.6199C36.0215 1.80087 37.1399 2.91935 37.1399 4.32087V6.02548C36.4351 5.49078 35.5674 5.16087 34.6199 5.16087H4.37993C3.43247 5.16087 2.56474 5.49078 1.85993 6.02548V4.32087C1.85993 2.91935 2.9784 1.80087 4.37993 1.80087ZM4.37993 6.84087H34.6199C36.0215 6.84087 37.1399 7.95935 37.1399 9.36087V11.0655C36.4351 10.5308 35.5674 10.2009 34.6199 10.2009H4.37993C3.43247 10.2009 2.56474 10.5308 1.85993 11.0655V9.36087C1.85993 7.95935 2.9784 6.84087 4.37993 6.84087ZM4.37993 11.8809H34.6199C36.0215 11.8809 37.1399 12.9993 37.1399 14.4009V16.0809H28.4167C26.5956 16.0809 24.9298 17.1099 24.115 18.7387L23.8016 19.367C22.9868 20.9958 21.3219 21.9609 19.4999 21.9609C17.678 21.9609 16.0138 20.9958 15.1999 19.367L14.8865 18.7387C14.0717 17.1091 12.4051 16.0809 10.5831 16.0809H1.85993V14.4009C1.85993 12.9993 2.9784 11.8809 4.37993 11.8809ZM1.85993 17.7609H10.5831C11.7759 17.7609 12.8486 18.4241 13.382 19.4917L13.6954 20.1185C14.7824 22.2907 17.0068 23.6409 19.4999 23.6409C21.9922 23.6409 24.2158 22.2915 25.3045 20.1185L25.6195 19.4901C26.152 18.4241 27.2248 17.7609 28.4167 17.7609H37.1399V20.2169V27.8409C37.1399 29.2302 36.0093 30.3609 34.6199 30.3609H4.37993C2.99057 30.3609 1.85993 29.2302 1.85993 27.8409V20.2169V17.7609Z" fill="#00A55D"/>
</svg>
