<svg width="36" height="39" viewBox="0 0 36 39" fill="none" xmlns="http://www.w3.org/2000/svg">
<path d="M3.23997 0.360001C1.85061 0.360001 0.719971 1.49064 0.719971 2.88V33.12C0.719971 34.5094 1.85061 35.64 3.23997 35.64H18.8784C18.571 35.1083 18.314 34.5472 18.1057 33.96H3.23997C2.77713 33.96 2.39997 33.5837 2.39997 33.12V2.88C2.39997 2.41632 2.77713 2.04 3.23997 2.04H26.76C27.2228 2.04 27.6 2.41632 27.6 2.88V20.52C28.1737 20.52 28.7323 20.5785 29.28 20.6709V2.88C29.28 1.49064 28.1493 0.360001 26.76 0.360001H3.23997ZM4.07997 3.72V4.56V12.12H25.92V3.72H4.07997ZM5.75997 5.4H24.24V10.44H5.75997V5.4ZM14.16 7.08V8.76H15.84V7.08H14.16ZM17.52 7.08V8.76H19.2V7.08H17.52ZM20.88 7.08V8.76H22.56V7.08H20.88ZM4.91997 15.48C4.45629 15.48 4.07997 15.8555 4.07997 16.32V31.44C4.07997 31.9045 4.45629 32.28 4.91997 32.28H17.6709C17.5785 31.7323 17.52 31.1737 17.52 30.6H15.84V27.24H18.1057C18.314 26.6528 18.571 26.0917 18.8784 25.56H15.84V22.2H19.2V25.0317C19.6746 24.3169 20.2432 23.6727 20.88 23.1023V22.2H22.0317C22.7129 21.7478 23.4551 21.381 24.24 21.1057H24.2416C24.4272 21.04 24.6175 20.9867 24.8076 20.9318C24.8984 20.9057 24.9866 20.8735 25.0783 20.8498H25.08C25.3553 20.7788 25.6356 20.7188 25.92 20.6709V16.32C25.92 15.8555 25.5436 15.48 25.08 15.48H4.91997ZM5.75997 17.16H9.11997V20.52H5.75997V17.16ZM10.8 17.16H14.16V20.52H10.8V17.16ZM15.84 17.16H19.2V20.52H15.84V17.16ZM20.88 17.16H24.24V20.52H20.88V17.16ZM5.75997 22.2H9.11997V25.56H5.75997V22.2ZM10.8 22.2H14.16V25.56H10.8V22.2ZM27.6 22.2C22.98 22.2 19.2 25.98 19.2 30.6C19.2 35.22 22.98 39 27.6 39C32.22 39 36 35.22 36 30.6C36 25.98 32.22 22.2 27.6 22.2ZM27.6 23.88C31.296 23.88 34.32 26.904 34.32 30.6C34.32 34.296 31.296 37.32 27.6 37.32C23.904 37.32 20.88 34.296 20.88 30.6C20.88 26.904 23.904 23.88 27.6 23.88ZM27.3473 25.0563V26.3163C26.5913 26.3163 24.9963 26.9033 24.9963 28.6673C24.9963 31.6073 28.7763 30.852 28.7763 32.7C28.7763 32.868 28.7756 33.7073 27.6836 33.7073C26.4236 33.7073 26.4236 32.532 26.4236 32.28H24.7436C24.7436 34.8 26.9276 35.0527 27.2636 35.0527V36.2273H28.1873V35.0527C28.5233 35.0527 30.54 34.8 30.54 32.7C30.54 29.76 26.76 30.4313 26.76 28.6673C26.76 28.4993 26.7596 27.6603 27.6836 27.5763C28.6916 27.5763 28.7763 28.4997 28.7763 29.0037H30.4563C30.4563 26.8197 28.8606 26.4003 28.2726 26.3163V25.0563H27.3473ZM5.75997 27.24H9.11997V30.6H5.75997V27.24ZM10.8 27.24H14.16V30.6H10.8V27.24Z" fill="#00A55D"/>
</svg>
