<svg width="42" height="42" viewBox="0 0 42 42" fill="none" xmlns="http://www.w3.org/2000/svg">
<rect x="0.5" y="0.5" width="41" height="41" stroke="black"/>
<path d="M1.67993 1.68V37.8H16.4324L19.1624 40.53L19.7399 39.9263L21.8662 37.8H32.7599V26.9325L39.9524 19.74L40.5299 19.1362L34.2299 12.8363L32.7599 14.3062V1.68H1.67993ZM3.35993 3.36H31.0799V16.0125L13.4399 33.6262L12.8362 34.23L13.0724 34.44C13.0527 34.4367 13.0396 34.44 13.0199 34.44C12.787 34.44 12.5999 34.627 12.5999 34.86C12.5999 35.093 12.787 35.28 13.0199 35.28C13.2529 35.28 13.4399 35.093 13.4399 34.86C13.4399 34.8403 13.4432 34.8272 13.4399 34.8075L14.7524 36.12H3.35993V3.36ZM6.29993 4.2C6.06696 4.2 5.87993 4.38703 5.87993 4.62C5.87993 4.85297 6.06696 5.04 6.29993 5.04C6.5329 5.04 6.71993 4.85297 6.71993 4.62C6.71993 4.38703 6.5329 4.2 6.29993 4.2ZM9.65993 4.2C9.42696 4.2 9.23993 4.38703 9.23993 4.62C9.23993 4.85297 9.42696 5.04 9.65993 5.04C9.8929 5.04 10.0799 4.85297 10.0799 4.62C10.0799 4.38703 9.8929 4.2 9.65993 4.2ZM13.0199 4.2C12.787 4.2 12.5999 4.38703 12.5999 4.62C12.5999 4.85297 12.787 5.04 13.0199 5.04C13.2529 5.04 13.4399 4.85297 13.4399 4.62C13.4399 4.38703 13.2529 4.2 13.0199 4.2ZM16.3799 4.2C16.147 4.2 15.9599 4.38703 15.9599 4.62C15.9599 4.85297 16.147 5.04 16.3799 5.04C16.6129 5.04 16.7999 4.85297 16.7999 4.62C16.7999 4.38703 16.6129 4.2 16.3799 4.2ZM19.7399 4.2C19.507 4.2 19.3199 4.38703 19.3199 4.62C19.3199 4.85297 19.507 5.04 19.7399 5.04C19.9729 5.04 20.1599 4.85297 20.1599 4.62C20.1599 4.38703 19.9729 4.2 19.7399 4.2ZM23.0999 4.2C22.867 4.2 22.6799 4.38703 22.6799 4.62C22.6799 4.85297 22.867 5.04 23.0999 5.04C23.3329 5.04 23.5199 4.85297 23.5199 4.62C23.5199 4.38703 23.3329 4.2 23.0999 4.2ZM26.4599 4.2C26.227 4.2 26.0399 4.38703 26.0399 4.62C26.0399 4.85297 26.227 5.04 26.4599 5.04C26.6929 5.04 26.8799 4.85297 26.8799 4.62C26.8799 4.38703 26.6929 4.2 26.4599 4.2ZM29.8199 4.2C29.587 4.2 29.3999 4.38703 29.3999 4.62C29.3999 4.85297 29.587 5.04 29.8199 5.04C30.0529 5.04 30.2399 4.85297 30.2399 4.62C30.2399 4.38703 30.0529 4.2 29.8199 4.2ZM4.61993 5.88C4.38696 5.88 4.19993 6.06703 4.19993 6.3C4.19993 6.53297 4.38696 6.72 4.61993 6.72C4.8529 6.72 5.03993 6.53297 5.03993 6.3C5.03993 6.06703 4.8529 5.88 4.61993 5.88ZM6.29993 5.88C6.06696 5.88 5.87993 6.06703 5.87993 6.3C5.87993 6.53297 6.06696 6.72 6.29993 6.72C6.5329 6.72 6.71993 6.53297 6.71993 6.3C6.71993 6.06703 6.5329 5.88 6.29993 5.88ZM7.97993 5.88C7.74696 5.88 7.55993 6.06703 7.55993 6.3C7.55993 6.53297 7.74696 6.72 7.97993 6.72C8.2129 6.72 8.39993 6.53297 8.39993 6.3C8.39993 6.06703 8.2129 5.88 7.97993 5.88ZM9.65993 5.88C9.42696 5.88 9.23993 6.06703 9.23993 6.3C9.23993 6.53297 9.42696 6.72 9.65993 6.72C9.8929 6.72 10.0799 6.53297 10.0799 6.3C10.0799 6.06703 9.8929 5.88 9.65993 5.88ZM11.3399 5.88C11.107 5.88 10.9199 6.06703 10.9199 6.3C10.9199 6.53297 11.107 6.72 11.3399 6.72C11.5729 6.72 11.7599 6.53297 11.7599 6.3C11.7599 6.06703 11.5729 5.88 11.3399 5.88ZM13.0199 5.88C12.787 5.88 12.5999 6.06703 12.5999 6.3C12.5999 6.53297 12.787 6.72 13.0199 6.72C13.2529 6.72 13.4399 6.53297 13.4399 6.3C13.4399 6.06703 13.2529 5.88 13.0199 5.88ZM14.6999 5.88C14.467 5.88 14.2799 6.06703 14.2799 6.3C14.2799 6.53297 14.467 6.72 14.6999 6.72C14.9329 6.72 15.1199 6.53297 15.1199 6.3C15.1199 6.06703 14.9329 5.88 14.6999 5.88ZM16.3799 5.88C16.147 5.88 15.9599 6.06703 15.9599 6.3C15.9599 6.53297 16.147 6.72 16.3799 6.72C16.6129 6.72 16.7999 6.53297 16.7999 6.3C16.7999 6.06703 16.6129 5.88 16.3799 5.88ZM18.0599 5.88C17.827 5.88 17.6399 6.06703 17.6399 6.3C17.6399 6.53297 17.827 6.72 18.0599 6.72C18.2929 6.72 18.4799 6.53297 18.4799 6.3C18.4799 6.06703 18.2929 5.88 18.0599 5.88ZM19.7399 5.88C19.507 5.88 19.3199 6.06703 19.3199 6.3C19.3199 6.53297 19.507 6.72 19.7399 6.72C19.9729 6.72 20.1599 6.53297 20.1599 6.3C20.1599 6.06703 19.9729 5.88 19.7399 5.88ZM21.4199 5.88C21.187 5.88 20.9999 6.06703 20.9999 6.3C20.9999 6.53297 21.187 6.72 21.4199 6.72C21.6529 6.72 21.8399 6.53297 21.8399 6.3C21.8399 6.06703 21.6529 5.88 21.4199 5.88ZM23.0999 5.88C22.867 5.88 22.6799 6.06703 22.6799 6.3C22.6799 6.53297 22.867 6.72 23.0999 6.72C23.3329 6.72 23.5199 6.53297 23.5199 6.3C23.5199 6.06703 23.3329 5.88 23.0999 5.88ZM24.7799 5.88C24.547 5.88 24.3599 6.06703 24.3599 6.3C24.3599 6.53297 24.547 6.72 24.7799 6.72C25.0129 6.72 25.1999 6.53297 25.1999 6.3C25.1999 6.06703 25.0129 5.88 24.7799 5.88ZM26.4599 5.88C26.227 5.88 26.0399 6.06703 26.0399 6.3C26.0399 6.53297 26.227 6.72 26.4599 6.72C26.6929 6.72 26.8799 6.53297 26.8799 6.3C26.8799 6.06703 26.6929 5.88 26.4599 5.88ZM28.1399 5.88C27.907 5.88 27.7199 6.06703 27.7199 6.3C27.7199 6.53297 27.907 6.72 28.1399 6.72C28.3729 6.72 28.5599 6.53297 28.5599 6.3C28.5599 6.06703 28.3729 5.88 28.1399 5.88ZM29.8199 5.88C29.587 5.88 29.3999 6.06703 29.3999 6.3C29.3999 6.53297 29.587 6.72 29.8199 6.72C30.0529 6.72 30.2399 6.53297 30.2399 6.3C30.2399 6.06703 30.0529 5.88 29.8199 5.88ZM6.29993 7.56C6.06696 7.56 5.87993 7.74703 5.87993 7.98C5.87993 8.21297 6.06696 8.4 6.29993 8.4C6.5329 8.4 6.71993 8.21297 6.71993 7.98C6.71993 7.74703 6.5329 7.56 6.29993 7.56ZM9.65993 7.56C9.42696 7.56 9.23993 7.74703 9.23993 7.98C9.23993 8.21297 9.42696 8.4 9.65993 8.4C9.8929 8.4 10.0799 8.21297 10.0799 7.98C10.0799 7.74703 9.8929 7.56 9.65993 7.56ZM13.0199 7.56C12.787 7.56 12.5999 7.74703 12.5999 7.98C12.5999 8.21297 12.787 8.4 13.0199 8.4C13.2529 8.4 13.4399 8.21297 13.4399 7.98C13.4399 7.74703 13.2529 7.56 13.0199 7.56ZM16.3799 7.56C16.147 7.56 15.9599 7.74703 15.9599 7.98C15.9599 8.21297 16.147 8.4 16.3799 8.4C16.6129 8.4 16.7999 8.21297 16.7999 7.98C16.7999 7.74703 16.6129 7.56 16.3799 7.56ZM19.7399 7.56C19.507 7.56 19.3199 7.74703 19.3199 7.98C19.3199 8.21297 19.507 8.4 19.7399 8.4C19.9729 8.4 20.1599 8.21297 20.1599 7.98C20.1599 7.74703 19.9729 7.56 19.7399 7.56ZM23.0999 7.56C22.867 7.56 22.6799 7.74703 22.6799 7.98C22.6799 8.21297 22.867 8.4 23.0999 8.4C23.3329 8.4 23.5199 8.21297 23.5199 7.98C23.5199 7.74703 23.3329 7.56 23.0999 7.56ZM26.4599 7.56C26.227 7.56 26.0399 7.74703 26.0399 7.98C26.0399 8.21297 26.227 8.4 26.4599 8.4C26.6929 8.4 26.8799 8.21297 26.8799 7.98C26.8799 7.74703 26.6929 7.56 26.4599 7.56ZM29.8199 7.56C29.587 7.56 29.3999 7.74703 29.3999 7.98C29.3999 8.21297 29.587 8.4 29.8199 8.4C30.0529 8.4 30.2399 8.21297 30.2399 7.98C30.2399 7.74703 30.0529 7.56 29.8199 7.56ZM4.61993 9.24C4.38696 9.24 4.19993 9.42703 4.19993 9.66C4.19993 9.89297 4.38696 10.08 4.61993 10.08C4.8529 10.08 5.03993 9.89297 5.03993 9.66C5.03993 9.42703 4.8529 9.24 4.61993 9.24ZM6.29993 9.24C6.06696 9.24 5.87993 9.42703 5.87993 9.66C5.87993 9.89297 6.06696 10.08 6.29993 10.08C6.5329 10.08 6.71993 9.89297 6.71993 9.66C6.71993 9.42703 6.5329 9.24 6.29993 9.24ZM7.97993 9.24C7.74696 9.24 7.55993 9.42703 7.55993 9.66C7.55993 9.89297 7.74696 10.08 7.97993 10.08C8.2129 10.08 8.39993 9.89297 8.39993 9.66C8.39993 9.42703 8.2129 9.24 7.97993 9.24ZM9.65993 9.24C9.42696 9.24 9.23993 9.42703 9.23993 9.66C9.23993 9.89297 9.42696 10.08 9.65993 10.08C9.8929 10.08 10.0799 9.89297 10.0799 9.66C10.0799 9.42703 9.8929 9.24 9.65993 9.24ZM11.3399 9.24C11.107 9.24 10.9199 9.42703 10.9199 9.66C10.9199 9.89297 11.107 10.08 11.3399 10.08C11.5729 10.08 11.7599 9.89297 11.7599 9.66C11.7599 9.42703 11.5729 9.24 11.3399 9.24ZM13.0199 9.24C12.787 9.24 12.5999 9.42703 12.5999 9.66C12.5999 9.89297 12.787 10.08 13.0199 10.08C13.2529 10.08 13.4399 9.89297 13.4399 9.66C13.4399 9.42703 13.2529 9.24 13.0199 9.24ZM14.6999 9.24C14.467 9.24 14.2799 9.42703 14.2799 9.66C14.2799 9.89297 14.467 10.08 14.6999 10.08C14.9329 10.08 15.1199 9.89297 15.1199 9.66C15.1199 9.42703 14.9329 9.24 14.6999 9.24ZM16.3799 9.24C16.147 9.24 15.9599 9.42703 15.9599 9.66C15.9599 9.89297 16.147 10.08 16.3799 10.08C16.6129 10.08 16.7999 9.89297 16.7999 9.66C16.7999 9.42703 16.6129 9.24 16.3799 9.24ZM18.0599 9.24C17.827 9.24 17.6399 9.42703 17.6399 9.66C17.6399 9.89297 17.827 10.08 18.0599 10.08C18.2929 10.08 18.4799 9.89297 18.4799 9.66C18.4799 9.42703 18.2929 9.24 18.0599 9.24ZM19.7399 9.24C19.507 9.24 19.3199 9.42703 19.3199 9.66C19.3199 9.89297 19.507 10.08 19.7399 10.08C19.9729 10.08 20.1599 9.89297 20.1599 9.66C20.1599 9.42703 19.9729 9.24 19.7399 9.24ZM21.4199 9.24C21.187 9.24 20.9999 9.42703 20.9999 9.66C20.9999 9.89297 21.187 10.08 21.4199 10.08C21.6529 10.08 21.8399 9.89297 21.8399 9.66C21.8399 9.42703 21.6529 9.24 21.4199 9.24ZM23.0999 9.24C22.867 9.24 22.6799 9.42703 22.6799 9.66C22.6799 9.89297 22.867 10.08 23.0999 10.08C23.3329 10.08 23.5199 9.89297 23.5199 9.66C23.5199 9.42703 23.3329 9.24 23.0999 9.24ZM24.7799 9.24C24.547 9.24 24.3599 9.42703 24.3599 9.66C24.3599 9.89297 24.547 10.08 24.7799 10.08C25.0129 10.08 25.1999 9.89297 25.1999 9.66C25.1999 9.42703 25.0129 9.24 24.7799 9.24ZM26.4599 9.24C26.227 9.24 26.0399 9.42703 26.0399 9.66C26.0399 9.89297 26.227 10.08 26.4599 10.08C26.6929 10.08 26.8799 9.89297 26.8799 9.66C26.8799 9.42703 26.6929 9.24 26.4599 9.24ZM28.1399 9.24C27.907 9.24 27.7199 9.42703 27.7199 9.66C27.7199 9.89297 27.907 10.08 28.1399 10.08C28.3729 10.08 28.5599 9.89297 28.5599 9.66C28.5599 9.42703 28.3729 9.24 28.1399 9.24ZM29.8199 9.24C29.587 9.24 29.3999 9.42703 29.3999 9.66C29.3999 9.89297 29.587 10.08 29.8199 10.08C30.0529 10.08 30.2399 9.89297 30.2399 9.66C30.2399 9.42703 30.0529 9.24 29.8199 9.24ZM6.29993 10.92C6.06696 10.92 5.87993 11.107 5.87993 11.34C5.87993 11.573 6.06696 11.76 6.29993 11.76C6.5329 11.76 6.71993 11.573 6.71993 11.34C6.71993 11.107 6.5329 10.92 6.29993 10.92ZM9.65993 10.92C9.42696 10.92 9.23993 11.107 9.23993 11.34C9.23993 11.573 9.42696 11.76 9.65993 11.76C9.8929 11.76 10.0799 11.573 10.0799 11.34C10.0799 11.107 9.8929 10.92 9.65993 10.92ZM13.0199 10.92C12.787 10.92 12.5999 11.107 12.5999 11.34C12.5999 11.573 12.787 11.76 13.0199 11.76C13.2529 11.76 13.4399 11.573 13.4399 11.34C13.4399 11.107 13.2529 10.92 13.0199 10.92ZM16.3799 10.92C16.147 10.92 15.9599 11.107 15.9599 11.34C15.9599 11.573 16.147 11.76 16.3799 11.76C16.6129 11.76 16.7999 11.573 16.7999 11.34C16.7999 11.107 16.6129 10.92 16.3799 10.92ZM19.7399 10.92C19.507 10.92 19.3199 11.107 19.3199 11.34C19.3199 11.573 19.507 11.76 19.7399 11.76C19.9729 11.76 20.1599 11.573 20.1599 11.34C20.1599 11.107 19.9729 10.92 19.7399 10.92ZM23.0999 10.92C22.867 10.92 22.6799 11.107 22.6799 11.34C22.6799 11.573 22.867 11.76 23.0999 11.76C23.3329 11.76 23.5199 11.573 23.5199 11.34C23.5199 11.107 23.3329 10.92 23.0999 10.92ZM26.4599 10.92C26.227 10.92 26.0399 11.107 26.0399 11.34C26.0399 11.573 26.227 11.76 26.4599 11.76C26.6929 11.76 26.8799 11.573 26.8799 11.34C26.8799 11.107 26.6929 10.92 26.4599 10.92ZM29.8199 10.92C29.587 10.92 29.3999 11.107 29.3999 11.34C29.3999 11.573 29.587 11.76 29.8199 11.76C30.0529 11.76 30.2399 11.573 30.2399 11.34C30.2399 11.107 30.0529 10.92 29.8199 10.92ZM4.61993 12.6C4.38696 12.6 4.19993 12.787 4.19993 13.02C4.19993 13.253 4.38696 13.44 4.61993 13.44C4.8529 13.44 5.03993 13.253 5.03993 13.02C5.03993 12.787 4.8529 12.6 4.61993 12.6ZM6.29993 12.6C6.06696 12.6 5.87993 12.787 5.87993 13.02C5.87993 13.253 6.06696 13.44 6.29993 13.44C6.5329 13.44 6.71993 13.253 6.71993 13.02C6.71993 12.787 6.5329 12.6 6.29993 12.6ZM7.97993 12.6C7.74696 12.6 7.55993 12.787 7.55993 13.02C7.55993 13.253 7.74696 13.44 7.97993 13.44C8.2129 13.44 8.39993 13.253 8.39993 13.02C8.39993 12.787 8.2129 12.6 7.97993 12.6ZM9.65993 12.6C9.42696 12.6 9.23993 12.787 9.23993 13.02C9.23993 13.253 9.42696 13.44 9.65993 13.44C9.8929 13.44 10.0799 13.253 10.0799 13.02C10.0799 12.787 9.8929 12.6 9.65993 12.6ZM11.3399 12.6C11.107 12.6 10.9199 12.787 10.9199 13.02C10.9199 13.253 11.107 13.44 11.3399 13.44C11.5729 13.44 11.7599 13.253 11.7599 13.02C11.7599 12.787 11.5729 12.6 11.3399 12.6ZM13.0199 12.6C12.787 12.6 12.5999 12.787 12.5999 13.02C12.5999 13.253 12.787 13.44 13.0199 13.44C13.2529 13.44 13.4399 13.253 13.4399 13.02C13.4399 12.787 13.2529 12.6 13.0199 12.6ZM14.6999 12.6C14.467 12.6 14.2799 12.787 14.2799 13.02C14.2799 13.253 14.467 13.44 14.6999 13.44C14.9329 13.44 15.1199 13.253 15.1199 13.02C15.1199 12.787 14.9329 12.6 14.6999 12.6ZM16.3799 12.6C16.147 12.6 15.9599 12.787 15.9599 13.02C15.9599 13.253 16.147 13.44 16.3799 13.44C16.6129 13.44 16.7999 13.253 16.7999 13.02C16.7999 12.787 16.6129 12.6 16.3799 12.6ZM18.0599 12.6C17.827 12.6 17.6399 12.787 17.6399 13.02C17.6399 13.253 17.827 13.44 18.0599 13.44C18.2929 13.44 18.4799 13.253 18.4799 13.02C18.4799 12.787 18.2929 12.6 18.0599 12.6ZM19.7399 12.6C19.507 12.6 19.3199 12.787 19.3199 13.02C19.3199 13.253 19.507 13.44 19.7399 13.44C19.9729 13.44 20.1599 13.253 20.1599 13.02C20.1599 12.787 19.9729 12.6 19.7399 12.6ZM21.4199 12.6C21.187 12.6 20.9999 12.787 20.9999 13.02C20.9999 13.253 21.187 13.44 21.4199 13.44C21.6529 13.44 21.8399 13.253 21.8399 13.02C21.8399 12.787 21.6529 12.6 21.4199 12.6ZM23.0999 12.6C22.867 12.6 22.6799 12.787 22.6799 13.02C22.6799 13.253 22.867 13.44 23.0999 13.44C23.3329 13.44 23.5199 13.253 23.5199 13.02C23.5199 12.787 23.3329 12.6 23.0999 12.6ZM24.7799 12.6C24.547 12.6 24.3599 12.787 24.3599 13.02C24.3599 13.253 24.547 13.44 24.7799 13.44C25.0129 13.44 25.1999 13.253 25.1999 13.02C25.1999 12.787 25.0129 12.6 24.7799 12.6ZM26.4599 12.6C26.227 12.6 26.0399 12.787 26.0399 13.02C26.0399 13.253 26.227 13.44 26.4599 13.44C26.6929 13.44 26.8799 13.253 26.8799 13.02C26.8799 12.787 26.6929 12.6 26.4599 12.6ZM28.1399 12.6C27.907 12.6 27.7199 12.787 27.7199 13.02C27.7199 13.253 27.907 13.44 28.1399 13.44C28.3729 13.44 28.5599 13.253 28.5599 13.02C28.5599 12.787 28.3729 12.6 28.1399 12.6ZM29.8199 12.6C29.587 12.6 29.3999 12.787 29.3999 13.02C29.3999 13.253 29.587 13.44 29.8199 13.44C30.0529 13.44 30.2399 13.253 30.2399 13.02C30.2399 12.787 30.0529 12.6 29.8199 12.6ZM6.29993 14.28C6.06696 14.28 5.87993 14.467 5.87993 14.7C5.87993 14.933 6.06696 15.12 6.29993 15.12C6.5329 15.12 6.71993 14.933 6.71993 14.7C6.71993 14.467 6.5329 14.28 6.29993 14.28ZM9.65993 14.28C9.42696 14.28 9.23993 14.467 9.23993 14.7C9.23993 14.933 9.42696 15.12 9.65993 15.12C9.8929 15.12 10.0799 14.933 10.0799 14.7C10.0799 14.467 9.8929 14.28 9.65993 14.28ZM13.0199 14.28C12.787 14.28 12.5999 14.467 12.5999 14.7C12.5999 14.933 12.787 15.12 13.0199 15.12C13.2529 15.12 13.4399 14.933 13.4399 14.7C13.4399 14.467 13.2529 14.28 13.0199 14.28ZM16.3799 14.28C16.147 14.28 15.9599 14.467 15.9599 14.7C15.9599 14.933 16.147 15.12 16.3799 15.12C16.6129 15.12 16.7999 14.933 16.7999 14.7C16.7999 14.467 16.6129 14.28 16.3799 14.28ZM19.7399 14.28C19.507 14.28 19.3199 14.467 19.3199 14.7C19.3199 14.933 19.507 15.12 19.7399 15.12C19.9729 15.12 20.1599 14.933 20.1599 14.7C20.1599 14.467 19.9729 14.28 19.7399 14.28ZM23.0999 14.28C22.867 14.28 22.6799 14.467 22.6799 14.7C22.6799 14.933 22.867 15.12 23.0999 15.12C23.3329 15.12 23.5199 14.933 23.5199 14.7C23.5199 14.467 23.3329 14.28 23.0999 14.28ZM26.4599 14.28C26.227 14.28 26.0399 14.467 26.0399 14.7C26.0399 14.933 26.227 15.12 26.4599 15.12C26.6929 15.12 26.8799 14.933 26.8799 14.7C26.8799 14.467 26.6929 14.28 26.4599 14.28ZM29.8199 14.28C29.587 14.28 29.3999 14.467 29.3999 14.7C29.3999 14.933 29.587 15.12 29.8199 15.12C30.0529 15.12 30.2399 14.933 30.2399 14.7C30.2399 14.467 30.0529 14.28 29.8199 14.28ZM34.2299 15.225L38.1674 19.1362L31.4474 25.8562C31.3523 25.9252 31.2702 26.017 31.2112 26.1187L21.0524 36.2512C20.931 36.33 20.8326 36.4383 20.7637 36.5662L19.1624 38.1675L15.2249 34.23L16.5637 32.8912L17.3512 33.6787C17.6859 34.0134 18.224 34.0134 18.5587 33.6787C18.8934 33.3441 18.8934 32.8059 18.5587 32.4712L17.7712 31.6838L19.0837 30.3713L20.5274 31.7887C20.7309 32.0381 21.0557 32.153 21.3707 32.0808C21.6824 32.0086 21.9285 31.7625 22.0007 31.4508C22.0729 31.1358 21.9581 30.8109 21.7087 30.6075L20.2912 29.1637L21.6037 27.8512L22.3912 28.6388C22.7259 28.9734 23.264 28.9734 23.5987 28.6388C23.9334 28.3041 23.9334 27.7659 23.5987 27.4312L22.8112 26.6437L24.1237 25.3312L25.5674 26.7487C25.7709 26.9981 26.0957 27.113 26.4107 27.0408C26.7224 26.9686 26.9685 26.7225 27.0407 26.4108C27.1129 26.0958 26.9981 25.7709 26.7487 25.5675L25.3312 24.1237L26.6437 22.8112L27.4312 23.5987C27.7659 23.9334 28.304 23.9334 28.6387 23.5987C28.9734 23.2641 28.9734 22.7259 28.6387 22.3913L27.8512 21.6038L29.1637 20.2913L30.6074 21.7087C30.8109 21.9581 31.1357 22.073 31.4507 22.0008C31.7624 21.9286 32.0085 21.6825 32.0807 21.3708C32.1529 21.0558 32.0381 20.7309 31.7887 20.5275L30.3712 19.0837L31.6837 17.7712L32.4712 18.5588C32.8059 18.8934 33.344 18.8934 33.6787 18.5588C34.0134 18.2241 34.0134 17.6859 33.6787 17.3512L32.8912 16.5638L34.2299 15.225ZM4.61993 15.96C4.38696 15.96 4.19993 16.147 4.19993 16.38C4.19993 16.613 4.38696 16.8 4.61993 16.8C4.8529 16.8 5.03993 16.613 5.03993 16.38C5.03993 16.147 4.8529 15.96 4.61993 15.96ZM6.29993 15.96C6.06696 15.96 5.87993 16.147 5.87993 16.38C5.87993 16.613 6.06696 16.8 6.29993 16.8C6.5329 16.8 6.71993 16.613 6.71993 16.38C6.71993 16.147 6.5329 15.96 6.29993 15.96ZM7.97993 15.96C7.74696 15.96 7.55993 16.147 7.55993 16.38C7.55993 16.613 7.74696 16.8 7.97993 16.8C8.2129 16.8 8.39993 16.613 8.39993 16.38C8.39993 16.147 8.2129 15.96 7.97993 15.96ZM9.65993 15.96C9.42696 15.96 9.23993 16.147 9.23993 16.38C9.23993 16.613 9.42696 16.8 9.65993 16.8C9.8929 16.8 10.0799 16.613 10.0799 16.38C10.0799 16.147 9.8929 15.96 9.65993 15.96ZM11.3399 15.96C11.107 15.96 10.9199 16.147 10.9199 16.38C10.9199 16.613 11.107 16.8 11.3399 16.8C11.5729 16.8 11.7599 16.613 11.7599 16.38C11.7599 16.147 11.5729 15.96 11.3399 15.96ZM13.0199 15.96C12.787 15.96 12.5999 16.147 12.5999 16.38C12.5999 16.613 12.787 16.8 13.0199 16.8C13.2529 16.8 13.4399 16.613 13.4399 16.38C13.4399 16.147 13.2529 15.96 13.0199 15.96ZM14.6999 15.96C14.467 15.96 14.2799 16.147 14.2799 16.38C14.2799 16.613 14.467 16.8 14.6999 16.8C14.9329 16.8 15.1199 16.613 15.1199 16.38C15.1199 16.147 14.9329 15.96 14.6999 15.96ZM16.3799 15.96C16.147 15.96 15.9599 16.147 15.9599 16.38C15.9599 16.613 16.147 16.8 16.3799 16.8C16.6129 16.8 16.7999 16.613 16.7999 16.38C16.7999 16.147 16.6129 15.96 16.3799 15.96ZM18.0599 15.96C17.827 15.96 17.6399 16.147 17.6399 16.38C17.6399 16.613 17.827 16.8 18.0599 16.8C18.2929 16.8 18.4799 16.613 18.4799 16.38C18.4799 16.147 18.2929 15.96 18.0599 15.96ZM19.7399 15.96C19.507 15.96 19.3199 16.147 19.3199 16.38C19.3199 16.613 19.507 16.8 19.7399 16.8C19.9729 16.8 20.1599 16.613 20.1599 16.38C20.1599 16.147 19.9729 15.96 19.7399 15.96ZM21.4199 15.96C21.187 15.96 20.9999 16.147 20.9999 16.38C20.9999 16.613 21.187 16.8 21.4199 16.8C21.6529 16.8 21.8399 16.613 21.8399 16.38C21.8399 16.147 21.6529 15.96 21.4199 15.96ZM23.0999 15.96C22.867 15.96 22.6799 16.147 22.6799 16.38C22.6799 16.613 22.867 16.8 23.0999 16.8C23.3329 16.8 23.5199 16.613 23.5199 16.38C23.5199 16.147 23.3329 15.96 23.0999 15.96ZM24.7799 15.96C24.547 15.96 24.3599 16.147 24.3599 16.38C24.3599 16.613 24.547 16.8 24.7799 16.8C25.0129 16.8 25.1999 16.613 25.1999 16.38C25.1999 16.147 25.0129 15.96 24.7799 15.96ZM26.4599 15.96C26.227 15.96 26.0399 16.147 26.0399 16.38C26.0399 16.613 26.227 16.8 26.4599 16.8C26.6929 16.8 26.8799 16.613 26.8799 16.38C26.8799 16.147 26.6929 15.96 26.4599 15.96ZM28.1399 15.96C27.907 15.96 27.7199 16.147 27.7199 16.38C27.7199 16.613 27.907 16.8 28.1399 16.8C28.3729 16.8 28.5599 16.613 28.5599 16.38C28.5599 16.147 28.3729 15.96 28.1399 15.96ZM29.8199 15.96C29.587 15.96 29.3999 16.147 29.3999 16.38C29.3999 16.613 29.587 16.8 29.8199 16.8C30.0529 16.8 30.2399 16.613 30.2399 16.38C30.2399 16.147 30.0529 15.96 29.8199 15.96ZM6.29993 17.64C6.06696 17.64 5.87993 17.827 5.87993 18.06C5.87993 18.293 6.06696 18.48 6.29993 18.48C6.5329 18.48 6.71993 18.293 6.71993 18.06C6.71993 17.827 6.5329 17.64 6.29993 17.64ZM9.65993 17.64C9.42696 17.64 9.23993 17.827 9.23993 18.06C9.23993 18.293 9.42696 18.48 9.65993 18.48C9.8929 18.48 10.0799 18.293 10.0799 18.06C10.0799 17.827 9.8929 17.64 9.65993 17.64ZM13.0199 17.64C12.787 17.64 12.5999 17.827 12.5999 18.06C12.5999 18.293 12.787 18.48 13.0199 18.48C13.2529 18.48 13.4399 18.293 13.4399 18.06C13.4399 17.827 13.2529 17.64 13.0199 17.64ZM16.3799 17.64C16.147 17.64 15.9599 17.827 15.9599 18.06C15.9599 18.293 16.147 18.48 16.3799 18.48C16.6129 18.48 16.7999 18.293 16.7999 18.06C16.7999 17.827 16.6129 17.64 16.3799 17.64ZM19.7399 17.64C19.507 17.64 19.3199 17.827 19.3199 18.06C19.3199 18.293 19.507 18.48 19.7399 18.48C19.9729 18.48 20.1599 18.293 20.1599 18.06C20.1599 17.827 19.9729 17.64 19.7399 17.64ZM23.0999 17.64C22.867 17.64 22.6799 17.827 22.6799 18.06C22.6799 18.293 22.867 18.48 23.0999 18.48C23.3329 18.48 23.5199 18.293 23.5199 18.06C23.5199 17.827 23.3329 17.64 23.0999 17.64ZM26.4599 17.64C26.227 17.64 26.0399 17.827 26.0399 18.06C26.0399 18.293 26.227 18.48 26.4599 18.48C26.6929 18.48 26.8799 18.293 26.8799 18.06C26.8799 17.827 26.6929 17.64 26.4599 17.64ZM4.61993 19.32C4.38696 19.32 4.19993 19.507 4.19993 19.74C4.19993 19.973 4.38696 20.16 4.61993 20.16C4.8529 20.16 5.03993 19.973 5.03993 19.74C5.03993 19.507 4.8529 19.32 4.61993 19.32ZM6.29993 19.32C6.06696 19.32 5.87993 19.507 5.87993 19.74C5.87993 19.973 6.06696 20.16 6.29993 20.16C6.5329 20.16 6.71993 19.973 6.71993 19.74C6.71993 19.507 6.5329 19.32 6.29993 19.32ZM7.97993 19.32C7.74696 19.32 7.55993 19.507 7.55993 19.74C7.55993 19.973 7.74696 20.16 7.97993 20.16C8.2129 20.16 8.39993 19.973 8.39993 19.74C8.39993 19.507 8.2129 19.32 7.97993 19.32ZM9.65993 19.32C9.42696 19.32 9.23993 19.507 9.23993 19.74C9.23993 19.973 9.42696 20.16 9.65993 20.16C9.8929 20.16 10.0799 19.973 10.0799 19.74C10.0799 19.507 9.8929 19.32 9.65993 19.32ZM11.3399 19.32C11.107 19.32 10.9199 19.507 10.9199 19.74C10.9199 19.973 11.107 20.16 11.3399 20.16C11.5729 20.16 11.7599 19.973 11.7599 19.74C11.7599 19.507 11.5729 19.32 11.3399 19.32ZM13.0199 19.32C12.787 19.32 12.5999 19.507 12.5999 19.74C12.5999 19.973 12.787 20.16 13.0199 20.16C13.2529 20.16 13.4399 19.973 13.4399 19.74C13.4399 19.507 13.2529 19.32 13.0199 19.32ZM14.6999 19.32C14.467 19.32 14.2799 19.507 14.2799 19.74C14.2799 19.973 14.467 20.16 14.6999 20.16C14.9329 20.16 15.1199 19.973 15.1199 19.74C15.1199 19.507 14.9329 19.32 14.6999 19.32ZM16.3799 19.32C16.147 19.32 15.9599 19.507 15.9599 19.74C15.9599 19.973 16.147 20.16 16.3799 20.16C16.6129 20.16 16.7999 19.973 16.7999 19.74C16.7999 19.507 16.6129 19.32 16.3799 19.32ZM18.0599 19.32C17.827 19.32 17.6399 19.507 17.6399 19.74C17.6399 19.973 17.827 20.16 18.0599 20.16C18.2929 20.16 18.4799 19.973 18.4799 19.74C18.4799 19.507 18.2929 19.32 18.0599 19.32ZM19.7399 19.32C19.507 19.32 19.3199 19.507 19.3199 19.74C19.3199 19.973 19.507 20.16 19.7399 20.16C19.9729 20.16 20.1599 19.973 20.1599 19.74C20.1599 19.507 19.9729 19.32 19.7399 19.32ZM21.4199 19.32C21.187 19.32 20.9999 19.507 20.9999 19.74C20.9999 19.973 21.187 20.16 21.4199 20.16C21.6529 20.16 21.8399 19.973 21.8399 19.74C21.8399 19.507 21.6529 19.32 21.4199 19.32ZM23.0999 19.32C22.867 19.32 22.6799 19.507 22.6799 19.74C22.6799 19.973 22.867 20.16 23.0999 20.16C23.3329 20.16 23.5199 19.973 23.5199 19.74C23.5199 19.507 23.3329 19.32 23.0999 19.32ZM24.7799 19.32C24.547 19.32 24.3599 19.507 24.3599 19.74C24.3599 19.973 24.547 20.16 24.7799 20.16C25.0129 20.16 25.1999 19.973 25.1999 19.74C25.1999 19.507 25.0129 19.32 24.7799 19.32ZM26.4599 19.32C26.227 19.32 26.0399 19.507 26.0399 19.74C26.0399 19.973 26.227 20.16 26.4599 20.16C26.6929 20.16 26.8799 19.973 26.8799 19.74C26.8799 19.507 26.6929 19.32 26.4599 19.32ZM6.29993 21C6.06696 21 5.87993 21.187 5.87993 21.42C5.87993 21.653 6.06696 21.84 6.29993 21.84C6.5329 21.84 6.71993 21.653 6.71993 21.42C6.71993 21.187 6.5329 21 6.29993 21ZM9.65993 21C9.42696 21 9.23993 21.187 9.23993 21.42C9.23993 21.653 9.42696 21.84 9.65993 21.84C9.8929 21.84 10.0799 21.653 10.0799 21.42C10.0799 21.187 9.8929 21 9.65993 21ZM13.0199 21C12.787 21 12.5999 21.187 12.5999 21.42C12.5999 21.653 12.787 21.84 13.0199 21.84C13.2529 21.84 13.4399 21.653 13.4399 21.42C13.4399 21.187 13.2529 21 13.0199 21ZM16.3799 21C16.147 21 15.9599 21.187 15.9599 21.42C15.9599 21.653 16.147 21.84 16.3799 21.84C16.6129 21.84 16.7999 21.653 16.7999 21.42C16.7999 21.187 16.6129 21 16.3799 21ZM19.7399 21C19.507 21 19.3199 21.187 19.3199 21.42C19.3199 21.653 19.507 21.84 19.7399 21.84C19.9729 21.84 20.1599 21.653 20.1599 21.42C20.1599 21.187 19.9729 21 19.7399 21ZM23.0999 21C22.867 21 22.6799 21.187 22.6799 21.42C22.6799 21.653 22.867 21.84 23.0999 21.84C23.3329 21.84 23.5199 21.653 23.5199 21.42C23.5199 21.187 23.3329 21 23.0999 21ZM4.61993 22.68C4.38696 22.68 4.19993 22.867 4.19993 23.1C4.19993 23.333 4.38696 23.52 4.61993 23.52C4.8529 23.52 5.03993 23.333 5.03993 23.1C5.03993 22.867 4.8529 22.68 4.61993 22.68ZM6.29993 22.68C6.06696 22.68 5.87993 22.867 5.87993 23.1C5.87993 23.333 6.06696 23.52 6.29993 23.52C6.5329 23.52 6.71993 23.333 6.71993 23.1C6.71993 22.867 6.5329 22.68 6.29993 22.68ZM7.97993 22.68C7.74696 22.68 7.55993 22.867 7.55993 23.1C7.55993 23.333 7.74696 23.52 7.97993 23.52C8.2129 23.52 8.39993 23.333 8.39993 23.1C8.39993 22.867 8.2129 22.68 7.97993 22.68ZM9.65993 22.68C9.42696 22.68 9.23993 22.867 9.23993 23.1C9.23993 23.333 9.42696 23.52 9.65993 23.52C9.8929 23.52 10.0799 23.333 10.0799 23.1C10.0799 22.867 9.8929 22.68 9.65993 22.68ZM11.3399 22.68C11.107 22.68 10.9199 22.867 10.9199 23.1C10.9199 23.333 11.107 23.52 11.3399 23.52C11.5729 23.52 11.7599 23.333 11.7599 23.1C11.7599 22.867 11.5729 22.68 11.3399 22.68ZM13.0199 22.68C12.787 22.68 12.5999 22.867 12.5999 23.1C12.5999 23.333 12.787 23.52 13.0199 23.52C13.2529 23.52 13.4399 23.333 13.4399 23.1C13.4399 22.867 13.2529 22.68 13.0199 22.68ZM14.6999 22.68C14.467 22.68 14.2799 22.867 14.2799 23.1C14.2799 23.333 14.467 23.52 14.6999 23.52C14.9329 23.52 15.1199 23.333 15.1199 23.1C15.1199 22.867 14.9329 22.68 14.6999 22.68ZM16.3799 22.68C16.147 22.68 15.9599 22.867 15.9599 23.1C15.9599 23.333 16.147 23.52 16.3799 23.52C16.6129 23.52 16.7999 23.333 16.7999 23.1C16.7999 22.867 16.6129 22.68 16.3799 22.68ZM18.0599 22.68C17.827 22.68 17.6399 22.867 17.6399 23.1C17.6399 23.333 17.827 23.52 18.0599 23.52C18.2929 23.52 18.4799 23.333 18.4799 23.1C18.4799 22.867 18.2929 22.68 18.0599 22.68ZM19.7399 22.68C19.507 22.68 19.3199 22.867 19.3199 23.1C19.3199 23.333 19.507 23.52 19.7399 23.52C19.9729 23.52 20.1599 23.333 20.1599 23.1C20.1599 22.867 19.9729 22.68 19.7399 22.68ZM21.4199 22.68C21.187 22.68 20.9999 22.867 20.9999 23.1C20.9999 23.333 21.187 23.52 21.4199 23.52C21.6529 23.52 21.8399 23.333 21.8399 23.1C21.8399 22.867 21.6529 22.68 21.4199 22.68ZM23.0999 22.68C22.867 22.68 22.6799 22.867 22.6799 23.1C22.6799 23.333 22.867 23.52 23.0999 23.52C23.3329 23.52 23.5199 23.333 23.5199 23.1C23.5199 22.867 23.3329 22.68 23.0999 22.68ZM6.29993 24.36C6.06696 24.36 5.87993 24.547 5.87993 24.78C5.87993 25.013 6.06696 25.2 6.29993 25.2C6.5329 25.2 6.71993 25.013 6.71993 24.78C6.71993 24.547 6.5329 24.36 6.29993 24.36ZM9.65993 24.36C9.42696 24.36 9.23993 24.547 9.23993 24.78C9.23993 25.013 9.42696 25.2 9.65993 25.2C9.8929 25.2 10.0799 25.013 10.0799 24.78C10.0799 24.547 9.8929 24.36 9.65993 24.36ZM13.0199 24.36C12.787 24.36 12.5999 24.547 12.5999 24.78C12.5999 25.013 12.787 25.2 13.0199 25.2C13.2529 25.2 13.4399 25.013 13.4399 24.78C13.4399 24.547 13.2529 24.36 13.0199 24.36ZM16.3799 24.36C16.147 24.36 15.9599 24.547 15.9599 24.78C15.9599 25.013 16.147 25.2 16.3799 25.2C16.6129 25.2 16.7999 25.013 16.7999 24.78C16.7999 24.547 16.6129 24.36 16.3799 24.36ZM19.7399 24.36C19.507 24.36 19.3199 24.547 19.3199 24.78C19.3199 25.013 19.507 25.2 19.7399 25.2C19.9729 25.2 20.1599 25.013 20.1599 24.78C20.1599 24.547 19.9729 24.36 19.7399 24.36ZM4.61993 26.04C4.38696 26.04 4.19993 26.227 4.19993 26.46C4.19993 26.693 4.38696 26.88 4.61993 26.88C4.8529 26.88 5.03993 26.693 5.03993 26.46C5.03993 26.227 4.8529 26.04 4.61993 26.04ZM6.29993 26.04C6.06696 26.04 5.87993 26.227 5.87993 26.46C5.87993 26.693 6.06696 26.88 6.29993 26.88C6.5329 26.88 6.71993 26.693 6.71993 26.46C6.71993 26.227 6.5329 26.04 6.29993 26.04ZM7.97993 26.04C7.74696 26.04 7.55993 26.227 7.55993 26.46C7.55993 26.693 7.74696 26.88 7.97993 26.88C8.2129 26.88 8.39993 26.693 8.39993 26.46C8.39993 26.227 8.2129 26.04 7.97993 26.04ZM9.65993 26.04C9.42696 26.04 9.23993 26.227 9.23993 26.46C9.23993 26.693 9.42696 26.88 9.65993 26.88C9.8929 26.88 10.0799 26.693 10.0799 26.46C10.0799 26.227 9.8929 26.04 9.65993 26.04ZM11.3399 26.04C11.107 26.04 10.9199 26.227 10.9199 26.46C10.9199 26.693 11.107 26.88 11.3399 26.88C11.5729 26.88 11.7599 26.693 11.7599 26.46C11.7599 26.227 11.5729 26.04 11.3399 26.04ZM13.0199 26.04C12.787 26.04 12.5999 26.227 12.5999 26.46C12.5999 26.693 12.787 26.88 13.0199 26.88C13.2529 26.88 13.4399 26.693 13.4399 26.46C13.4399 26.227 13.2529 26.04 13.0199 26.04ZM14.6999 26.04C14.467 26.04 14.2799 26.227 14.2799 26.46C14.2799 26.693 14.467 26.88 14.6999 26.88C14.9329 26.88 15.1199 26.693 15.1199 26.46C15.1199 26.227 14.9329 26.04 14.6999 26.04ZM16.3799 26.04C16.147 26.04 15.9599 26.227 15.9599 26.46C15.9599 26.693 16.147 26.88 16.3799 26.88C16.6129 26.88 16.7999 26.693 16.7999 26.46C16.7999 26.227 16.6129 26.04 16.3799 26.04ZM18.0599 26.04C17.827 26.04 17.6399 26.227 17.6399 26.46C17.6399 26.693 17.827 26.88 18.0599 26.88C18.2929 26.88 18.4799 26.693 18.4799 26.46C18.4799 26.227 18.2929 26.04 18.0599 26.04ZM19.7399 26.04C19.507 26.04 19.3199 26.227 19.3199 26.46C19.3199 26.693 19.507 26.88 19.7399 26.88C19.9729 26.88 20.1599 26.693 20.1599 26.46C20.1599 26.227 19.9729 26.04 19.7399 26.04ZM6.29993 27.72C6.06696 27.72 5.87993 27.907 5.87993 28.14C5.87993 28.373 6.06696 28.56 6.29993 28.56C6.5329 28.56 6.71993 28.373 6.71993 28.14C6.71993 27.907 6.5329 27.72 6.29993 27.72ZM9.65993 27.72C9.42696 27.72 9.23993 27.907 9.23993 28.14C9.23993 28.373 9.42696 28.56 9.65993 28.56C9.8929 28.56 10.0799 28.373 10.0799 28.14C10.0799 27.907 9.8929 27.72 9.65993 27.72ZM13.0199 27.72C12.787 27.72 12.5999 27.907 12.5999 28.14C12.5999 28.373 12.787 28.56 13.0199 28.56C13.2529 28.56 13.4399 28.373 13.4399 28.14C13.4399 27.907 13.2529 27.72 13.0199 27.72ZM16.3799 27.72C16.147 27.72 15.9599 27.907 15.9599 28.14C15.9599 28.373 16.147 28.56 16.3799 28.56C16.6129 28.56 16.7999 28.373 16.7999 28.14C16.7999 27.907 16.6129 27.72 16.3799 27.72ZM31.0799 28.6125V36.12H23.5462L26.1974 33.495C26.2696 33.5573 26.3582 33.6 26.4599 33.6C26.6929 33.6 26.8799 33.413 26.8799 33.18C26.8799 33.0783 26.8373 32.9897 26.7749 32.9175L29.5574 30.135C29.6296 30.1973 29.7182 30.24 29.8199 30.24C30.0529 30.24 30.2399 30.053 30.2399 29.82C30.2399 29.7183 30.1973 29.6297 30.1349 29.5575L31.0799 28.6125ZM4.61993 29.4C4.38696 29.4 4.19993 29.587 4.19993 29.82C4.19993 30.053 4.38696 30.24 4.61993 30.24C4.8529 30.24 5.03993 30.053 5.03993 29.82C5.03993 29.587 4.8529 29.4 4.61993 29.4ZM6.29993 29.4C6.06696 29.4 5.87993 29.587 5.87993 29.82C5.87993 30.053 6.06696 30.24 6.29993 30.24C6.5329 30.24 6.71993 30.053 6.71993 29.82C6.71993 29.587 6.5329 29.4 6.29993 29.4ZM7.97993 29.4C7.74696 29.4 7.55993 29.587 7.55993 29.82C7.55993 30.053 7.74696 30.24 7.97993 30.24C8.2129 30.24 8.39993 30.053 8.39993 29.82C8.39993 29.587 8.2129 29.4 7.97993 29.4ZM9.65993 29.4C9.42696 29.4 9.23993 29.587 9.23993 29.82C9.23993 30.053 9.42696 30.24 9.65993 30.24C9.8929 30.24 10.0799 30.053 10.0799 29.82C10.0799 29.587 9.8929 29.4 9.65993 29.4ZM11.3399 29.4C11.107 29.4 10.9199 29.587 10.9199 29.82C10.9199 30.053 11.107 30.24 11.3399 30.24C11.5729 30.24 11.7599 30.053 11.7599 29.82C11.7599 29.587 11.5729 29.4 11.3399 29.4ZM13.0199 29.4C12.787 29.4 12.5999 29.587 12.5999 29.82C12.5999 30.053 12.787 30.24 13.0199 30.24C13.2529 30.24 13.4399 30.053 13.4399 29.82C13.4399 29.587 13.2529 29.4 13.0199 29.4ZM14.6999 29.4C14.467 29.4 14.2799 29.587 14.2799 29.82C14.2799 30.053 14.467 30.24 14.6999 30.24C14.9329 30.24 15.1199 30.053 15.1199 29.82C15.1199 29.587 14.9329 29.4 14.6999 29.4ZM16.3799 29.4C16.147 29.4 15.9599 29.587 15.9599 29.82C15.9599 30.053 16.147 30.24 16.3799 30.24C16.6129 30.24 16.7999 30.053 16.7999 29.82C16.7999 29.587 16.6129 29.4 16.3799 29.4ZM6.29993 31.08C6.06696 31.08 5.87993 31.267 5.87993 31.5C5.87993 31.733 6.06696 31.92 6.29993 31.92C6.5329 31.92 6.71993 31.733 6.71993 31.5C6.71993 31.267 6.5329 31.08 6.29993 31.08ZM9.65993 31.08C9.42696 31.08 9.23993 31.267 9.23993 31.5C9.23993 31.733 9.42696 31.92 9.65993 31.92C9.8929 31.92 10.0799 31.733 10.0799 31.5C10.0799 31.267 9.8929 31.08 9.65993 31.08ZM13.0199 31.08C12.787 31.08 12.5999 31.267 12.5999 31.5C12.5999 31.733 12.787 31.92 13.0199 31.92C13.2529 31.92 13.4399 31.733 13.4399 31.5C13.4399 31.267 13.2529 31.08 13.0199 31.08ZM29.8199 31.08C29.587 31.08 29.3999 31.267 29.3999 31.5C29.3999 31.733 29.587 31.92 29.8199 31.92C30.0529 31.92 30.2399 31.733 30.2399 31.5C30.2399 31.267 30.0529 31.08 29.8199 31.08ZM4.61993 32.76C4.38696 32.76 4.19993 32.947 4.19993 33.18C4.19993 33.413 4.38696 33.6 4.61993 33.6C4.8529 33.6 5.03993 33.413 5.03993 33.18C5.03993 32.947 4.8529 32.76 4.61993 32.76ZM6.29993 32.76C6.06696 32.76 5.87993 32.947 5.87993 33.18C5.87993 33.413 6.06696 33.6 6.29993 33.6C6.5329 33.6 6.71993 33.413 6.71993 33.18C6.71993 32.947 6.5329 32.76 6.29993 32.76ZM7.97993 32.76C7.74696 32.76 7.55993 32.947 7.55993 33.18C7.55993 33.413 7.74696 33.6 7.97993 33.6C8.2129 33.6 8.39993 33.413 8.39993 33.18C8.39993 32.947 8.2129 32.76 7.97993 32.76ZM9.65993 32.76C9.42696 32.76 9.23993 32.947 9.23993 33.18C9.23993 33.413 9.42696 33.6 9.65993 33.6C9.8929 33.6 10.0799 33.413 10.0799 33.18C10.0799 32.947 9.8929 32.76 9.65993 32.76ZM11.3399 32.76C11.107 32.76 10.9199 32.947 10.9199 33.18C10.9199 33.413 11.107 33.6 11.3399 33.6C11.5729 33.6 11.7599 33.413 11.7599 33.18C11.7599 32.947 11.5729 32.76 11.3399 32.76ZM13.0199 32.76C12.787 32.76 12.5999 32.947 12.5999 33.18C12.5999 33.413 12.787 33.6 13.0199 33.6C13.2529 33.6 13.4399 33.413 13.4399 33.18C13.4399 32.947 13.2529 32.76 13.0199 32.76ZM28.1399 32.76C27.907 32.76 27.7199 32.947 27.7199 33.18C27.7199 33.413 27.907 33.6 28.1399 33.6C28.3729 33.6 28.5599 33.413 28.5599 33.18C28.5599 32.947 28.3729 32.76 28.1399 32.76ZM29.8199 32.76C29.587 32.76 29.3999 32.947 29.3999 33.18C29.3999 33.413 29.587 33.6 29.8199 33.6C30.0529 33.6 30.2399 33.413 30.2399 33.18C30.2399 32.947 30.0529 32.76 29.8199 32.76ZM6.29993 34.44C6.06696 34.44 5.87993 34.627 5.87993 34.86C5.87993 35.093 6.06696 35.28 6.29993 35.28C6.5329 35.28 6.71993 35.093 6.71993 34.86C6.71993 34.627 6.5329 34.44 6.29993 34.44ZM9.65993 34.44C9.42696 34.44 9.23993 34.627 9.23993 34.86C9.23993 35.093 9.42696 35.28 9.65993 35.28C9.8929 35.28 10.0799 35.093 10.0799 34.86C10.0799 34.627 9.8929 34.44 9.65993 34.44ZM26.4599 34.44C26.227 34.44 26.0399 34.627 26.0399 34.86C26.0399 35.093 26.227 35.28 26.4599 35.28C26.6929 35.28 26.8799 35.093 26.8799 34.86C26.8799 34.627 26.6929 34.44 26.4599 34.44ZM29.8199 34.44C29.587 34.44 29.3999 34.627 29.3999 34.86C29.3999 35.093 29.587 35.28 29.8199 35.28C30.0529 35.28 30.2399 35.093 30.2399 34.86C30.2399 34.627 30.0529 34.44 29.8199 34.44Z" fill="#00A55D"/>
</svg>
